<svg xmlns="http://www.w3.org/2000/svg" width="1200" height="1200" viewBox="0 0 1200 1200">
  <rect width="100%" height="100%" fill="none"/>
  <circle cx="600.00" cy="600.00" r="560.00" fill="none" stroke="#1e1b1a" stroke-width="6"/><circle cx="600.00" cy="600.00" r="540.00" fill="none" stroke="#1e1b1a" stroke-width="2"/><circle cx="600.00" cy="600.00" r="480.00" fill="none" stroke="#1e1b1a" stroke-width="2"/><circle cx="600.00" cy="600.00" r="360.00" fill="none" stroke="#1e1b1a" stroke-width="2"/><circle cx="600.00" cy="600.00" r="240.00" fill="none" stroke="#1e1b1a" stroke-width="2"/><circle cx="600.00" cy="600.00" r="120.00" fill="#f1e9dd" stroke="#1e1b1a" stroke-width="3"/><line x1="720.00" y1="600.00" x2="1080.00" y2="600.00" stroke="#1e1b1a" stroke-width="2"/><line x1="715.91" y1="631.06" x2="1063.64" y2="724.23" stroke="#1e1b1a" stroke-width="2"/><line x1="703.92" y1="660.00" x2="1015.69" y2="840.00" stroke="#1e1b1a" stroke-width="2"/><line x1="684.85" y1="684.85" x2="939.41" y2="939.41" stroke="#1e1b1a" stroke-width="2"/><line x1="660.00" y1="703.92" x2="840.00" y2="1015.69" stroke="#1e1b1a" stroke-width="2"/><line x1="631.06" y1="715.91" x2="724.23" y2="1063.64" stroke="#1e1b1a" stroke-width="2"/><line x1="600.00" y1="720.00" x2="600.00" y2="1080.00" stroke="#1e1b1a" stroke-width="2"/><line x1="568.94" y1="715.91" x2="475.77" y2="1063.64" stroke="#1e1b1a" stroke-width="2"/><line x1="540.00" y1="703.92" x2="360.00" y2="1015.69" stroke="#1e1b1a" stroke-width="2"/><line x1="515.15" y1="684.85" x2="260.59" y2="939.41" stroke="#1e1b1a" stroke-width="2"/><line x1="496.08" y1="660.00" x2="184.31" y2="840.00" stroke="#1e1b1a" stroke-width="2"/><line x1="484.09" y1="631.06" x2="136.36" y2="724.23" stroke="#1e1b1a" stroke-width="2"/><line x1="480.00" y1="600.00" x2="120.00" y2="600.00" stroke="#1e1b1a" stroke-width="2"/><line x1="484.09" y1="568.94" x2="136.36" y2="475.77" stroke="#1e1b1a" stroke-width="2"/><line x1="496.08" y1="540.00" x2="184.31" y2="360.00" stroke="#1e1b1a" stroke-width="2"/><line x1="515.15" y1="515.15" x2="260.59" y2="260.59" stroke="#1e1b1a" stroke-width="2"/><line x1="540.00" y1="496.08" x2="360.00" y2="184.31" stroke="#1e1b1a" stroke-width="2"/><line x1="568.94" y1="484.09" x2="475.77" y2="136.36" stroke="#1e1b1a" stroke-width="2"/><line x1="600.00" y1="480.00" x2="600.00" y2="120.00" stroke="#1e1b1a" stroke-width="2"/><line x1="631.06" y1="484.09" x2="724.23" y2="136.36" stroke="#1e1b1a" stroke-width="2"/><line x1="660.00" y1="496.08" x2="840.00" y2="184.31" stroke="#1e1b1a" stroke-width="2"/><line x1="684.85" y1="515.15" x2="939.41" y2="260.59" stroke="#1e1b1a" stroke-width="2"/><line x1="703.92" y1="540.00" x2="1015.69" y2="360.00" stroke="#1e1b1a" stroke-width="2"/><line x1="715.91" y1="568.94" x2="1063.64" y2="475.77" stroke="#1e1b1a" stroke-width="2"/><path d="M 900.00 572.00 A 36.00 36.00 0 0 1 928.00 600.00 A 36.00 36.00 0 0 1 900.00 628.00 A 36.00 36.00 0 0 1 872.00 600.00 A 36.00 36.00 0 0 1 900.00 572.00 Z" fill="#faf7f2" stroke="#1e1b1a" stroke-width="2"/><path d="M 889.78 649.65 A 36.00 36.00 0 0 1 917.78 677.65 A 36.00 36.00 0 0 1 889.78 705.65 A 36.00 36.00 0 0 1 861.78 677.65 A 36.00 36.00 0 0 1 889.78 649.65 Z" fill="#faf7f2" stroke="#1e1b1a" stroke-width="2"/><path d="M 859.81 722.00 A 36.00 36.00 0 0 1 887.81 750.00 A 36.00 36.00 0 0 1 859.81 778.00 A 36.00 36.00 0 0 1 831.81 750.00 A 36.00 36.00 0 0 1 859.81 722.00 Z" fill="#faf7f2" stroke="#1e1b1a" stroke-width="2"/><path d="M 812.13 784.13 A 36.00 36.00 0 0 1 840.13 812.13 A 36.00 36.00 0 0 1 812.13 840.13 A 36.00 36.00 0 0 1 784.13 812.13 A 36.00 36.00 0 0 1 812.13 784.13 Z" fill="#faf7f2" stroke="#1e1b1a" stroke-width="2"/><path d="M 750.00 831.81 A 36.00 36.00 0 0 1 778.00 859.81 A 36.00 36.00 0 0 1 750.00 887.81 A 36.00 36.00 0 0 1 722.00 859.81 A 36.00 36.00 0 0 1 750.00 831.81 Z" fill="#faf7f2" stroke="#1e1b1a" stroke-width="2"/><path d="M 677.65 861.78 A 36.00 36.00 0 0 1 705.65 889.78 A 36.00 36.00 0 0 1 677.65 917.78 A 36.00 36.00 0 0 1 649.65 889.78 A 36.00 36.00 0 0 1 677.65 861.78 Z" fill="#faf7f2" stroke="#1e1b1a" stroke-width="2"/><path d="M 600.00 872.00 A 36.00 36.00 0 0 1 628.00 900.00 A 36.00 36.00 0 0 1 600.00 928.00 A 36.00 36.00 0 0 1 572.00 900.00 A 36.00 36.00 0 0 1 600.00 872.00 Z" fill="#faf7f2" stroke="#1e1b1a" stroke-width="2"/><path d="M 522.35 861.78 A 36.00 36.00 0 0 1 550.35 889.78 A 36.00 36.00 0 0 1 522.35 917.78 A 36.00 36.00 0 0 1 494.35 889.78 A 36.00 36.00 0 0 1 522.35 861.78 Z" fill="#faf7f2" stroke="#1e1b1a" stroke-width="2"/><path d="M 450.00 831.81 A 36.00 36.00 0 0 1 478.00 859.81 A 36.00 36.00 0 0 1 450.00 887.81 A 36.00 36.00 0 0 1 422.00 859.81 A 36.00 36.00 0 0 1 450.00 831.81 Z" fill="#faf7f2" stroke="#1e1b1a" stroke-width="2"/><path d="M 387.87 784.13 A 36.00 36.00 0 0 1 415.87 812.13 A 36.00 36.00 0 0 1 387.87 840.13 A 36.00 36.00 0 0 1 359.87 812.13 A 36.00 36.00 0 0 1 387.87 784.13 Z" fill="#faf7f2" stroke="#1e1b1a" stroke-width="2"/><path d="M 340.19 722.00 A 36.00 36.00 0 0 1 368.19 750.00 A 36.00 36.00 0 0 1 340.19 778.00 A 36.00 36.00 0 0 1 312.19 750.00 A 36.00 36.00 0 0 1 340.19 722.00 Z" fill="#faf7f2" stroke="#1e1b1a" stroke-width="2"/><path d="M 310.22 649.65 A 36.00 36.00 0 0 1 338.22 677.65 A 36.00 36.00 0 0 1 310.22 705.65 A 36.00 36.00 0 0 1 282.22 677.65 A 36.00 36.00 0 0 1 310.22 649.65 Z" fill="#faf7f2" stroke="#1e1b1a" stroke-width="2"/><path d="M 300.00 572.00 A 36.00 36.00 0 0 1 328.00 600.00 A 36.00 36.00 0 0 1 300.00 628.00 A 36.00 36.00 0 0 1 272.00 600.00 A 36.00 36.00 0 0 1 300.00 572.00 Z" fill="#faf7f2" stroke="#1e1b1a" stroke-width="2"/><path d="M 310.22 494.35 A 36.00 36.00 0 0 1 338.22 522.35 A 36.00 36.00 0 0 1 310.22 550.35 A 36.00 36.00 0 0 1 282.22 522.35 A 36.00 36.00 0 0 1 310.22 494.35 Z" fill="#faf7f2" stroke="#1e1b1a" stroke-width="2"/><path d="M 340.19 422.00 A 36.00 36.00 0 0 1 368.19 450.00 A 36.00 36.00 0 0 1 340.19 478.00 A 36.00 36.00 0 0 1 312.19 450.00 A 36.00 36.00 0 0 1 340.19 422.00 Z" fill="#faf7f2" stroke="#1e1b1a" stroke-width="2"/><path d="M 387.87 359.87 A 36.00 36.00 0 0 1 415.87 387.87 A 36.00 36.00 0 0 1 387.87 415.87 A 36.00 36.00 0 0 1 359.87 387.87 A 36.00 36.00 0 0 1 387.87 359.87 Z" fill="#faf7f2" stroke="#1e1b1a" stroke-width="2"/><path d="M 450.00 312.19 A 36.00 36.00 0 0 1 478.00 340.19 A 36.00 36.00 0 0 1 450.00 368.19 A 36.00 36.00 0 0 1 422.00 340.19 A 36.00 36.00 0 0 1 450.00 312.19 Z" fill="#faf7f2" stroke="#1e1b1a" stroke-width="2"/><path d="M 522.35 282.22 A 36.00 36.00 0 0 1 550.35 310.22 A 36.00 36.00 0 0 1 522.35 338.22 A 36.00 36.00 0 0 1 494.35 310.22 A 36.00 36.00 0 0 1 522.35 282.22 Z" fill="#faf7f2" stroke="#1e1b1a" stroke-width="2"/><path d="M 600.00 272.00 A 36.00 36.00 0 0 1 628.00 300.00 A 36.00 36.00 0 0 1 600.00 328.00 A 36.00 36.00 0 0 1 572.00 300.00 A 36.00 36.00 0 0 1 600.00 272.00 Z" fill="#faf7f2" stroke="#1e1b1a" stroke-width="2"/><path d="M 677.65 282.22 A 36.00 36.00 0 0 1 705.65 310.22 A 36.00 36.00 0 0 1 677.65 338.22 A 36.00 36.00 0 0 1 649.65 310.22 A 36.00 36.00 0 0 1 677.65 282.22 Z" fill="#faf7f2" stroke="#1e1b1a" stroke-width="2"/><path d="M 750.00 312.19 A 36.00 36.00 0 0 1 778.00 340.19 A 36.00 36.00 0 0 1 750.00 368.19 A 36.00 36.00 0 0 1 722.00 340.19 A 36.00 36.00 0 0 1 750.00 312.19 Z" fill="#faf7f2" stroke="#1e1b1a" stroke-width="2"/><path d="M 812.13 359.87 A 36.00 36.00 0 0 1 840.13 387.87 A 36.00 36.00 0 0 1 812.13 415.87 A 36.00 36.00 0 0 1 784.13 387.87 A 36.00 36.00 0 0 1 812.13 359.87 Z" fill="#faf7f2" stroke="#1e1b1a" stroke-width="2"/><path d="M 859.81 422.00 A 36.00 36.00 0 0 1 887.81 450.00 A 36.00 36.00 0 0 1 859.81 478.00 A 36.00 36.00 0 0 1 831.81 450.00 A 36.00 36.00 0 0 1 859.81 422.00 Z" fill="#faf7f2" stroke="#1e1b1a" stroke-width="2"/><path d="M 889.78 494.35 A 36.00 36.00 0 0 1 917.78 522.35 A 36.00 36.00 0 0 1 889.78 550.35 A 36.00 36.00 0 0 1 861.78 522.35 A 36.00 36.00 0 0 1 889.78 494.35 Z" fill="#faf7f2" stroke="#1e1b1a" stroke-width="2"/><path d="M 1020.00 556.00 A 54.00 54.00 0 0 1 1064.00 600.00 A 54.00 54.00 0 0 1 1020.00 644.00 A 54.00 54.00 0 0 1 976.00 600.00 A 54.00 54.00 0 0 1 1020.00 556.00 Z" fill="#f1e9dd" stroke="#1e1b1a" stroke-width="3"/><path d="M 963.73 766.00 A 54.00 54.00 0 0 1 1007.73 810.00 A 54.00 54.00 0 0 1 963.73 854.00 A 54.00 54.00 0 0 1 919.73 810.00 A 54.00 54.00 0 0 1 963.73 766.00 Z" fill="#f1e9dd" stroke="#1e1b1a" stroke-width="3"/><path d="M 810.00 919.73 A 54.00 54.00 0 0 1 854.00 963.73 A 54.00 54.00 0 0 1 810.00 1007.73 A 54.00 54.00 0 0 1 766.00 963.73 A 54.00 54.00 0 0 1 810.00 919.73 Z" fill="#f1e9dd" stroke="#1e1b1a" stroke-width="3"/><path d="M 600.00 976.00 A 54.00 54.00 0 0 1 644.00 1020.00 A 54.00 54.00 0 0 1 600.00 1064.00 A 54.00 54.00 0 0 1 556.00 1020.00 A 54.00 54.00 0 0 1 600.00 976.00 Z" fill="#f1e9dd" stroke="#1e1b1a" stroke-width="3"/><path d="M 390.00 919.73 A 54.00 54.00 0 0 1 434.00 963.73 A 54.00 54.00 0 0 1 390.00 1007.73 A 54.00 54.00 0 0 1 346.00 963.73 A 54.00 54.00 0 0 1 390.00 919.73 Z" fill="#f1e9dd" stroke="#1e1b1a" stroke-width="3"/><path d="M 236.27 766.00 A 54.00 54.00 0 0 1 280.27 810.00 A 54.00 54.00 0 0 1 236.27 854.00 A 54.00 54.00 0 0 1 192.27 810.00 A 54.00 54.00 0 0 1 236.27 766.00 Z" fill="#f1e9dd" stroke="#1e1b1a" stroke-width="3"/><path d="M 180.00 556.00 A 54.00 54.00 0 0 1 224.00 600.00 A 54.00 54.00 0 0 1 180.00 644.00 A 54.00 54.00 0 0 1 136.00 600.00 A 54.00 54.00 0 0 1 180.00 556.00 Z" fill="#f1e9dd" stroke="#1e1b1a" stroke-width="3"/><path d="M 236.27 346.00 A 54.00 54.00 0 0 1 280.27 390.00 A 54.00 54.00 0 0 1 236.27 434.00 A 54.00 54.00 0 0 1 192.27 390.00 A 54.00 54.00 0 0 1 236.27 346.00 Z" fill="#f1e9dd" stroke="#1e1b1a" stroke-width="3"/><path d="M 390.00 192.27 A 54.00 54.00 0 0 1 434.00 236.27 A 54.00 54.00 0 0 1 390.00 280.27 A 54.00 54.00 0 0 1 346.00 236.27 A 54.00 54.00 0 0 1 390.00 192.27 Z" fill="#f1e9dd" stroke="#1e1b1a" stroke-width="3"/><path d="M 600.00 136.00 A 54.00 54.00 0 0 1 644.00 180.00 A 54.00 54.00 0 0 1 600.00 224.00 A 54.00 54.00 0 0 1 556.00 180.00 A 54.00 54.00 0 0 1 600.00 136.00 Z" fill="#f1e9dd" stroke="#1e1b1a" stroke-width="3"/><path d="M 810.00 192.27 A 54.00 54.00 0 0 1 854.00 236.27 A 54.00 54.00 0 0 1 810.00 280.27 A 54.00 54.00 0 0 1 766.00 236.27 A 54.00 54.00 0 0 1 810.00 192.27 Z" fill="#f1e9dd" stroke="#1e1b1a" stroke-width="3"/><path d="M 963.73 346.00 A 54.00 54.00 0 0 1 1007.73 390.00 A 54.00 54.00 0 0 1 963.73 434.00 A 54.00 54.00 0 0 1 919.73 390.00 A 54.00 54.00 0 0 1 963.73 346.00 Z" fill="#f1e9dd" stroke="#1e1b1a" stroke-width="3"/><circle cx="1140.00" cy="600.00" r="12.00" fill="#c9a36c" stroke="#1e1b1a" stroke-width="2"/><circle cx="600.00" cy="1140.00" r="12.00" fill="#c9a36c" stroke="#1e1b1a" stroke-width="2"/><circle cx="60.00" cy="600.00" r="12.00" fill="#c9a36c" stroke="#1e1b1a" stroke-width="2"/><circle cx="600.00" cy="60.00" r="12.00" fill="#c9a36c" stroke="#1e1b1a" stroke-width="2"/><ellipse cx="600" cy="600" rx="30" ry="90" fill="#4a586c" stroke="#1e1b1a" stroke-width="2" transform="rotate(0,600,600)" /><ellipse cx="600" cy="600" rx="30" ry="90" fill="#4a586c" stroke="#1e1b1a" stroke-width="2" transform="rotate(30,600,600)" /><ellipse cx="600" cy="600" rx="30" ry="90" fill="#4a586c" stroke="#1e1b1a" stroke-width="2" transform="rotate(60,600,600)" /><ellipse cx="600" cy="600" rx="30" ry="90" fill="#4a586c" stroke="#1e1b1a" stroke-width="2" transform="rotate(90,600,600)" /><ellipse cx="600" cy="600" rx="30" ry="90" fill="#4a586c" stroke="#1e1b1a" stroke-width="2" transform="rotate(120,600,600)" /><ellipse cx="600" cy="600" rx="30" ry="90" fill="#4a586c" stroke="#1e1b1a" stroke-width="2" transform="rotate(150,600,600)" /><ellipse cx="600" cy="600" rx="30" ry="90" fill="#4a586c" stroke="#1e1b1a" stroke-width="2" transform="rotate(180,600,600)" /><ellipse cx="600" cy="600" rx="30" ry="90" fill="#4a586c" stroke="#1e1b1a" stroke-width="2" transform="rotate(210,600,600)" /><ellipse cx="600" cy="600" rx="30" ry="90" fill="#4a586c" stroke="#1e1b1a" stroke-width="2" transform="rotate(240,600,600)" /><ellipse cx="600" cy="600" rx="30" ry="90" fill="#4a586c" stroke="#1e1b1a" stroke-width="2" transform="rotate(270,600,600)" /><ellipse cx="600" cy="600" rx="30" ry="90" fill="#4a586c" stroke="#1e1b1a" stroke-width="2" transform="rotate(300,600,600)" /><ellipse cx="600" cy="600" rx="30" ry="90" fill="#4a586c" stroke="#1e1b1a" stroke-width="2" transform="rotate(330,600,600)" /><circle cx="600" cy="600" r="24" fill="#c9a36c" stroke="#1e1b1a" stroke-width="3"/><circle cx="600" cy="600" r="8" fill="#7a3b3a" stroke="#1e1b1a" stroke-width="2"/>
</svg>